<?xml version="1.0" standalone="no"?>
<svg xmlns="http://www.w3.org/2000/svg" xmlns:xlink="http://www.w3.org/1999/xlink" width="689pt" height="869pt" viewBox="0.00 0.00 688.82 869">
<g id="graph0" class="graph" transform="translate(35.59227800898776,778.3532102613499) scale(0.757858283255199)" data-name="G">

<polygon fill="#2e3e56" stroke="none" points="-4,4 -4,-865 684.82,-865 684.82,4 -4,4"/>
<g id="clust1" class="cluster" data-name="clusterFactory">

<path fill="#445773" stroke="#445773" d="M20,-369C20,-369 442.9,-369 442.9,-369 448.9,-369 454.9,-375 454.9,-381 454.9,-381 454.9,-704 454.9,-704 454.9,-710 448.9,-716 442.9,-716 442.9,-716 20,-716 20,-716 14,-716 8,-710 8,-704 8,-704 8,-381 8,-381 8,-375 14,-369 20,-369"/>
<text text-anchor="middle" x="231.45" y="-699.4" font-family="Times,serif" font-size="14.00" fill="#f0f0f0" style="">Factory</text>
</g>
<g id="clust2" class="cluster" data-name="clusterAddress">

<path fill="rgb(59, 75, 99)" stroke="rgb(232, 114, 109)" stroke-dasharray="5,2" d="M321.56,-284C321.56,-284 415.02,-284 415.02,-284 421.02,-284 427.02,-290 427.02,-296 427.02,-296 427.02,-349 427.02,-349 427.02,-355 421.02,-361 415.02,-361 415.02,-361 321.56,-361 321.56,-361 315.56,-361 309.56,-355 309.56,-349 309.56,-349 309.56,-296 309.56,-296 309.56,-290 315.56,-284 321.56,-284"/>
<text text-anchor="middle" x="368.29" y="-344.4" font-family="Times,serif" font-size="14.00" fill="#f0f0f0" style="">Address</text>
</g>
<g id="clust3" class="cluster" data-name="clusterIProducerStorage">

<path fill="rgb(59, 75, 99)" stroke="rgb(232, 114, 109)" stroke-dasharray="5,2" d="M486.9,-184C486.9,-184 660.82,-184 660.82,-184 666.82,-184 672.82,-190 672.82,-196 672.82,-196 672.82,-465 672.82,-465 672.82,-471 666.82,-477 660.82,-477 660.82,-477 486.9,-477 486.9,-477 480.9,-477 474.9,-471 474.9,-465 474.9,-465 474.9,-196 474.9,-196 474.9,-190 480.9,-184 486.9,-184"/>
<text text-anchor="middle" x="573.86" y="-460.4" font-family="Times,serif" font-size="14.00" fill="#f0f0f0" style="">IProducerStorage</text>
</g>
<g id="clust4" class="cluster" data-name="clusterClones">

<path fill="rgb(59, 75, 99)" stroke="rgb(232, 114, 109)" stroke-dasharray="5,2" d="M340.34,-93C340.34,-93 396.24,-93 396.24,-93 402.24,-93 408.24,-99 408.24,-105 408.24,-105 408.24,-158 408.24,-158 408.24,-164 402.24,-170 396.24,-170 396.24,-170 340.34,-170 340.34,-170 334.34,-170 328.34,-164 328.34,-158 328.34,-158 328.34,-105 328.34,-105 328.34,-99 334.34,-93 340.34,-93"/>
<text text-anchor="middle" x="368.29" y="-153.4" font-family="Times,serif" font-size="14.00" fill="#f0f0f0" style="">Clones</text>
</g>
<g id="clust5" class="cluster" data-name="clusterProducer">

<path fill="rgb(59, 75, 99)" stroke="rgb(232, 114, 109)" stroke-dasharray="5,2" d="M327.47,-8C327.47,-8 409.11,-8 409.11,-8 415.11,-8 421.11,-14 421.11,-20 421.11,-20 421.11,-73 421.11,-73 421.11,-79 415.11,-85 409.11,-85 409.11,-85 327.47,-85 327.47,-85 321.47,-85 315.47,-79 315.47,-73 315.47,-73 315.47,-20 315.47,-20 315.47,-14 321.47,-8 327.47,-8"/>
<text text-anchor="middle" x="368.29" y="-68.4" font-family="Times,serif" font-size="14.00" fill="#f0f0f0" style="">Producer</text>
</g>
<g id="clust6" class="cluster" data-name="cluster_01">

<polygon fill="#2e3e56" stroke="black" points="61.84,-724 61.84,-853 403.29,-853 403.29,-724 61.84,-724"/>
<text text-anchor="middle" x="232.56" y="-836.4" font-family="Times,serif" font-size="14.00" style="">Legend</text>
</g>
<!-- Factory.initialize -->
<g id="node1" class="node" pointer-events="visible" data-name="Factory.initialize">

<ellipse fill="#ffbdb9" stroke="#ffbdb9" stroke-width="3" cx="134.84" cy="-638" rx="44.64" ry="18"/>
<text text-anchor="middle" x="134.84" y="-633.8" font-family="Times,serif" font-size="14.00">initialize</text>
</g>
<!-- Factory.__Ownable_init -->
<g id="node7" class="node" pointer-events="visible" data-name="Factory.__Ownable_init">

<ellipse fill="#edad56" stroke="#edad56" stroke-width="3" cx="368.29" cy="-611" rx="73.02" ry="18"/>
<text text-anchor="middle" x="368.29" y="-606.8" font-family="Times,serif" font-size="14.00">__Ownable_init</text>
</g>
<!-- Factory.initialize&#45;&gt;Factory.__Ownable_init -->
<g id="edge1" class="edge" data-name="Factory.initialize-&gt;Factory.__Ownable_init">

<path fill="none" stroke="#1bc6a6" stroke-width="2" d="M179.37,-632.92C209.83,-629.37 251.39,-624.52 287.68,-620.29"/>
<polygon fill="#1bc6a6" stroke="#1bc6a6" stroke-width="2" points="287.74,-623.8 297.27,-619.17 286.93,-616.85 287.74,-623.8"/>
</g>
<!-- Factory.IProducerStorage -->
<g id="node8" class="node" pointer-events="visible" data-name="Factory.IProducerStorage">

<ellipse fill="#edad56" stroke="#edad56" stroke-width="3" cx="368.29" cy="-665" rx="78.72" ry="18"/>
<text text-anchor="middle" x="368.29" y="-660.8" font-family="Times,serif" font-size="14.00">IProducerStorage</text>
</g>
<!-- Factory.initialize&#45;&gt;Factory.IProducerStorage -->
<g id="edge2" class="edge" data-name="Factory.initialize-&gt;Factory.IProducerStorage">

<path fill="none" stroke="#1bc6a6" stroke-width="2" d="M179.37,-643.08C208.64,-646.49 248.18,-651.11 283.43,-655.22"/>
<polygon fill="#1bc6a6" stroke="#1bc6a6" stroke-width="2" points="282.86,-658.67 293.19,-656.36 283.67,-651.72 282.86,-658.67"/>
</g>
<!-- Factory.getProducerImplementation -->
<g id="node2" class="node" pointer-events="visible" data-name="Factory.getProducerImplementation">

<ellipse fill="#ffbdb9" stroke="#ffbdb9" stroke-width="3" cx="134.84" cy="-557" rx="118.68" ry="18"/>
<text text-anchor="middle" x="134.84" y="-552.8" font-family="Times,serif" font-size="14.00">getProducerImplementation</text>
</g>
<!-- Factory.setProducerImplementation -->
<g id="node3" class="node" pointer-events="visible" data-name="Factory.setProducerImplementation">

<ellipse fill="#ffbdb9" stroke="#ffbdb9" stroke-width="3" cx="134.84" cy="-395" rx="117.54" ry="18"/>
<text text-anchor="middle" x="134.84" y="-390.8" font-family="Times,serif" font-size="14.00">setProducerImplementation</text>
</g>
<!-- Address.isContract -->
<g id="node11" class="node" pointer-events="visible" data-name="Address.isContract">

<ellipse fill="#edad56" stroke="#edad56" stroke-width="3" cx="368.29" cy="-310" rx="50.96" ry="18"/>
<text text-anchor="middle" x="368.29" y="-305.8" font-family="Times,serif" font-size="14.00">isContract</text>
</g>
<!-- Factory.setProducerImplementation&#45;&gt;Address.isContract -->
<g id="edge3" class="edge" data-name="Factory.setProducerImplementation-&gt;Address.isContract">

<path fill="none" stroke="white" stroke-width="2" d="M184.08,-377.28C223.49,-362.81 278.96,-342.44 318.52,-327.91"/>
<polygon fill="white" stroke="white" stroke-width="2" points="319.49,-331.28 327.67,-324.55 317.07,-324.71 319.49,-331.28"/>
</g>
<!-- Factory.newBcontract -->
<g id="node4" class="node" pointer-events="visible" data-name="Factory.newBcontract">

<ellipse fill="#ffbdb9" stroke="#ffbdb9" stroke-width="3" cx="134.84" cy="-449" rx="64.83" ry="18"/>
<text text-anchor="middle" x="134.84" y="-444.8" font-family="Times,serif" font-size="14.00">newBcontract</text>
</g>
<!-- Factory.currentPR_ID -->
<g id="node5" class="node" pointer-events="visible" data-name="Factory.currentPR_ID">

<ellipse fill="#edad56" stroke="#edad56" stroke-width="3" cx="368.29" cy="-395" rx="65.42" ry="18"/>
<text text-anchor="middle" x="368.29" y="-390.8" font-family="Times,serif" font-size="14.00">currentPR_ID</text>
</g>
<!-- Factory.newBcontract&#45;&gt;Factory.currentPR_ID -->
<g id="edge9" class="edge" data-name="Factory.newBcontract-&gt;Factory.currentPR_ID">

<path fill="none" stroke="#1bc6a6" stroke-width="2" d="M157.57,-430.81C181.22,-420.7 220.16,-411.82 253.68,-404 265.13,-401.33 277.23,-398.48 289.09,-395.88"/>
<polygon fill="#1bc6a6" stroke="#1bc6a6" stroke-width="2" points="289.81,-399.31 298.86,-393.81 288.35,-392.46 289.81,-399.31"/>
</g>
<!-- Factory.newBcontract&#45;&gt;Factory.currentPR_ID -->
<g id="edge10" class="edge" data-name="Factory.newBcontract-&gt;Factory.currentPR_ID">

<path fill="none" stroke="#1bc6a6" stroke-width="2" d="M187.48,-437.26C208.08,-432.55 232.01,-427.06 253.68,-422 270.04,-418.18 287.71,-414.01 304.14,-410.1"/>
<polygon fill="#1bc6a6" stroke="#1bc6a6" stroke-width="2" points="304.54,-413.6 313.46,-407.88 302.92,-406.79 304.54,-413.6"/>
</g>
<!-- Factory.newBcontract&#45;&gt;Factory.currentPR_ID -->
<g id="edge16" class="edge" data-name="Factory.newBcontract-&gt;Factory.currentPR_ID">

<path fill="none" stroke="#1bc6a6" stroke-width="2" d="M200.38,-451.66C217.7,-448.34 236.4,-444.03 253.68,-440 280.87,-433.65 311.69,-426.32 334.36,-418.1"/>
<polygon fill="#1bc6a6" stroke="#1bc6a6" stroke-width="2" points="335.57,-421.38 343.55,-414.42 332.96,-414.88 335.57,-421.38"/>
</g>
<!-- Factory.incrementPR_ID -->
<g id="node6" class="node" pointer-events="visible" data-name="Factory.incrementPR_ID">

<ellipse fill="#edad56" stroke="#edad56" stroke-width="3" cx="368.29" cy="-449" rx="76.45" ry="18"/>
<text text-anchor="middle" x="368.29" y="-444.8" font-family="Times,serif" font-size="14.00">incrementPR_ID</text>
</g>
<!-- Factory.newBcontract&#45;&gt;Factory.incrementPR_ID -->
<g id="edge7" class="edge" data-name="Factory.newBcontract-&gt;Factory.incrementPR_ID">

<path fill="none" stroke="#1bc6a6" stroke-width="2" d="M200.93,-449C224.72,-449 252.06,-449 277.62,-449"/>
<polygon fill="#1bc6a6" stroke="#1bc6a6" stroke-width="2" points="277.37,-452.5 287.37,-449 277.37,-445.5 277.37,-452.5"/>
</g>
<!-- Factory.Producer -->
<g id="node9" class="node" pointer-events="visible" data-name="Factory.Producer">

<ellipse fill="#edad56" stroke="#edad56" stroke-width="3" cx="368.29" cy="-503" rx="45.79" ry="18"/>
<text text-anchor="middle" x="368.29" y="-498.8" font-family="Times,serif" font-size="14.00">Producer</text>
</g>
<!-- Factory.newBcontract&#45;&gt;Factory.Producer -->
<g id="edge6" class="edge" data-name="Factory.newBcontract-&gt;Factory.Producer">

<path fill="none" stroke="#1bc6a6" stroke-width="2" d="M186.92,-460.92C224.75,-469.74 276.15,-481.74 314.41,-490.66"/>
<polygon fill="#1bc6a6" stroke="#1bc6a6" stroke-width="2" points="313.61,-494.07 324.14,-492.93 315.2,-487.25 313.61,-494.07"/>
</g>
<!-- Factory.payable -->
<g id="node10" class="node" pointer-events="visible" data-name="Factory.payable">

<ellipse fill="#edad56" stroke="#edad56" stroke-width="3" cx="368.29" cy="-557" rx="41.13" ry="18"/>
<text text-anchor="middle" x="368.29" y="-552.8" font-family="Times,serif" font-size="14.00">payable</text>
</g>
<!-- Factory.newBcontract&#45;&gt;Factory.payable -->
<g id="edge11" class="edge" data-name="Factory.newBcontract-&gt;Factory.payable">

<path fill="none" stroke="#1bc6a6" stroke-width="2" d="M193.64,-457.68C222.07,-470.65 257.14,-488.87 289.68,-503 309.47,-511.6 332.97,-519.46 348.89,-530.03"/>
<polygon fill="#1bc6a6" stroke="#1bc6a6" stroke-width="2" points="346.67,-532.73 356.63,-536.34 351.09,-527.31 346.67,-532.73"/>
</g>
<!-- Factory.newBcontract&#45;&gt;Factory.payable -->
<g id="edge12" class="edge" data-name="Factory.newBcontract-&gt;Factory.payable">

<path fill="none" stroke="#1bc6a6" stroke-width="2" d="M175.2,-464.44C205.81,-480.06 249.67,-503.63 289.68,-521 302.77,-526.68 317.48,-532.05 330.54,-537.01"/>
<polygon fill="#1bc6a6" stroke="#1bc6a6" stroke-width="2" points="329.05,-540.19 339.64,-540.55 331.58,-533.66 329.05,-540.19"/>
</g>
<!-- Factory.newBcontract&#45;&gt;Factory.payable -->
<g id="edge15" class="edge" data-name="Factory.newBcontract-&gt;Factory.payable">

<path fill="none" stroke="#1bc6a6" stroke-width="2" d="M156.75,-467.33C185.89,-487.14 240.67,-517.72 289.68,-539 297.68,-542.47 306.28,-545.83 314.75,-548.8"/>
<polygon fill="#1bc6a6" stroke="#1bc6a6" stroke-width="2" points="313.5,-552.07 324.09,-551.9 315.7,-545.43 313.5,-552.07"/>
</g>
<!-- Factory.newBcontract&#45;&gt;Factory.payable -->
<g id="edge17" class="edge" data-name="Factory.newBcontract-&gt;Factory.payable">

<path fill="none" stroke="#1bc6a6" stroke-width="2" d="M145.31,-467.97C169.04,-495.6 233.2,-532.47 289.68,-557 302.92,-562.75 317.83,-568.18 331.02,-570.97"/>
<polygon fill="#1bc6a6" stroke="#1bc6a6" stroke-width="2" points="330.11,-574.37 340.51,-572.35 331.12,-567.44 330.11,-574.37"/>
</g>
<!-- IProducerStorage.exsistProducerClone -->
<g id="node12" class="node" pointer-events="visible" data-name="IProducerStorage.exsistProducerClone">

<ellipse fill="#edad56" stroke="#edad56" stroke-width="3" cx="573.86" cy="-210" rx="90.92" ry="18"/>
<text text-anchor="middle" x="573.86" y="-205.8" font-family="Times,serif" font-size="14.00">exsistProducerClone</text>
</g>
<!-- Factory.newBcontract&#45;&gt;IProducerStorage.exsistProducerClone -->
<g id="edge4" class="edge" data-name="Factory.newBcontract-&gt;IProducerStorage.exsistProducerClone">

<path fill="none" stroke="white" stroke-width="2" d="M200.94,-447.38C220.26,-443.71 239.92,-436.29 253.68,-422 313.28,-360.08 225.66,-289.35 289.68,-232 345.94,-181.59 436.28,-183.64 499.76,-193.41"/>
<polygon fill="white" stroke="white" stroke-width="2" points="499.05,-196.84 509.49,-195.02 500.2,-189.93 499.05,-196.84"/>
</g>
<!-- IProducerStorage.SetCloneId -->
<g id="node13" class="node" pointer-events="visible" data-name="IProducerStorage.SetCloneId">

<ellipse fill="#edad56" stroke="#edad56" stroke-width="3" cx="573.86" cy="-318" rx="54.48" ry="18"/>
<text text-anchor="middle" x="573.86" y="-313.8" font-family="Times,serif" font-size="14.00">SetCloneId</text>
</g>
<!-- Factory.newBcontract&#45;&gt;IProducerStorage.SetCloneId -->
<g id="edge8" class="edge" data-name="Factory.newBcontract-&gt;IProducerStorage.SetCloneId">

<path fill="none" stroke="white" stroke-width="2" d="M200.73,-446.81C219.93,-443.09 239.57,-435.79 253.68,-422 300.24,-376.5 238.29,-319.98 289.68,-280 347.63,-234.9 383.77,-261.73 454.9,-280 464.72,-282.52 465.5,-287.18 474.9,-291 487.41,-296.08 501.19,-300.54 514.38,-304.29"/>
<polygon fill="white" stroke="white" stroke-width="2" points="513.28,-307.62 523.85,-306.87 515.12,-300.86 513.28,-307.62"/>
</g>
<!-- IProducerStorage.addProducer -->
<g id="node14" class="node" pointer-events="visible" data-name="IProducerStorage.addProducer">

<ellipse fill="#edad56" stroke="#edad56" stroke-width="3" cx="573.86" cy="-264" rx="59.68" ry="18"/>
<text text-anchor="middle" x="573.86" y="-259.8" font-family="Times,serif" font-size="14.00">addProducer</text>
</g>
<!-- Factory.newBcontract&#45;&gt;IProducerStorage.addProducer -->
<g id="edge13" class="edge" data-name="Factory.newBcontract-&gt;IProducerStorage.addProducer">

<path fill="none" stroke="white" stroke-width="2" d="M200.76,-447.21C220.08,-443.53 239.78,-436.15 253.68,-422 308.1,-366.6 229.37,-299.94 289.68,-251 322.12,-224.67 436.12,-238.99 509.2,-251.62"/>
<polygon fill="white" stroke="white" stroke-width="2" points="508.46,-255.04 518.92,-253.34 509.68,-248.15 508.46,-255.04"/>
</g>
<!-- Clones.clone -->
<g id="node17" class="node" pointer-events="visible" data-name="Clones.clone">

<ellipse fill="#edad56" stroke="#edad56" stroke-width="3" cx="368.29" cy="-119" rx="31.9" ry="18"/>
<text text-anchor="middle" x="368.29" y="-114.8" font-family="Times,serif" font-size="14.00">clone</text>
</g>
<!-- Factory.newBcontract&#45;&gt;Clones.clone -->
<g id="edge5" class="edge" data-name="Factory.newBcontract-&gt;Clones.clone">

<path fill="none" stroke="white" stroke-width="2" d="M201,-447.79C220.45,-444.16 240.16,-436.66 253.68,-422 329.17,-340.12 231.53,-269 289.68,-174 299.29,-158.29 315.27,-145.82 330.23,-136.76"/>
<polygon fill="white" stroke="white" stroke-width="2" points="331.72,-139.94 338.72,-131.98 328.29,-133.84 331.72,-139.94"/>
</g>
<!-- Producer.initialize -->
<g id="node18" class="node" pointer-events="visible" data-name="Producer.initialize">

<ellipse fill="#edad56" stroke="#edad56" stroke-width="3" cx="368.29" cy="-34" rx="44.64" ry="18"/>
<text text-anchor="middle" x="368.29" y="-29.8" font-family="Times,serif" font-size="14.00">initialize</text>
</g>
<!-- Factory.newBcontract&#45;&gt;Producer.initialize -->
<g id="edge14" class="edge" data-name="Factory.newBcontract-&gt;Producer.initialize">

<path fill="none" stroke="white" stroke-width="2" d="M201.01,-448.13C220.58,-444.54 240.36,-436.98 253.68,-422 303.12,-366.37 251.98,-153.18 289.68,-89 298.12,-74.62 311.98,-63.02 325.67,-54.25"/>
<polygon fill="white" stroke="white" stroke-width="2" points="327.09,-57.48 333.91,-49.37 323.52,-51.46 327.09,-57.48"/>
</g>
<!-- IProducerStorage.currentPR_ID -->
<g id="node15" class="node" pointer-events="visible" data-name="IProducerStorage.currentPR_ID">

<ellipse fill="#edad56" stroke="#edad56" stroke-width="3" cx="573.86" cy="-372" rx="65.42" ry="18"/>
<text text-anchor="middle" x="573.86" y="-367.8" font-family="Times,serif" font-size="14.00">currentPR_ID</text>
</g>
<!-- Factory.currentPR_ID&#45;&gt;IProducerStorage.currentPR_ID -->
<g id="edge18" class="edge" data-name="Factory.currentPR_ID-&gt;IProducerStorage.currentPR_ID">

<path fill="none" stroke="white" stroke-width="2" d="M430.64,-388.07C452.07,-385.65 476.36,-382.9 498.72,-380.38"/>
<polygon fill="white" stroke="white" stroke-width="2" points="499.08,-383.86 508.62,-379.26 498.29,-376.9 499.08,-383.86"/>
</g>
<!-- Factory.incrementPR_ID&#45;&gt;IProducerStorage.currentPR_ID -->
<g id="edge20" class="edge" data-name="Factory.incrementPR_ID-&gt;IProducerStorage.currentPR_ID">

<path fill="none" stroke="white" stroke-width="2" d="M426.1,-435.94C436.14,-432.3 446.17,-427.72 454.9,-422 466.23,-414.57 463.44,-406.22 474.9,-399 483.65,-393.49 493.54,-389.08 503.58,-385.57"/>
<polygon fill="white" stroke="white" stroke-width="2" points="504.46,-388.96 512.95,-382.62 502.36,-382.28 504.46,-388.96"/>
</g>
<!-- IProducerStorage.incrementPR_ID -->
<g id="node16" class="node" pointer-events="visible" data-name="IProducerStorage.incrementPR_ID">

<ellipse fill="#edad56" stroke="#edad56" stroke-width="3" cx="573.86" cy="-426" rx="76.45" ry="18"/>
<text text-anchor="middle" x="573.86" y="-421.8" font-family="Times,serif" font-size="14.00">incrementPR_ID</text>
</g>
<!-- Factory.incrementPR_ID&#45;&gt;IProducerStorage.incrementPR_ID -->
<g id="edge19" class="edge" data-name="Factory.incrementPR_ID-&gt;IProducerStorage.incrementPR_ID">

<path fill="none" stroke="white" stroke-width="2" d="M439.35,-441.08C455.66,-439.24 473.18,-437.26 489.99,-435.36"/>
<polygon fill="white" stroke="white" stroke-width="2" points="490.12,-438.87 499.66,-434.27 489.33,-431.91 490.12,-438.87"/>
</g>
<!-- key -->
<g id="node19" class="node" pointer-events="visible" data-name="key">

<polygon fill="#edad56" stroke="none" stroke-width="3" points="199.84,-820 69.84,-820 69.84,-732 199.84,-732 199.84,-820"/>
<text text-anchor="start" x="119.48" y="-801.4" font-family="Times,serif" font-size="14.00">Internal Call</text>
<text text-anchor="start" x="115.59" y="-781.4" font-family="Times,serif" font-size="14.00">External Call</text>
<text text-anchor="start" x="93.04" y="-761.4" font-family="Times,serif" font-size="14.00">Defined Contract</text>
<text text-anchor="start" x="79.44" y="-741.4" font-family="Times,serif" font-size="14.00">Undefined Contract</text>
</g>
<!-- key2 -->
<g id="node20" class="node" pointer-events="visible" data-name="key2">

<polygon fill="#edad56" stroke="none" stroke-width="3" points="395.29,-820 341.29,-820 341.29,-732 395.29,-732 395.29,-820"/>
<text text-anchor="start" x="358.29" y="-801.4" font-family="Times,serif" font-size="14.00">   </text>
<text text-anchor="start" x="358.29" y="-781.4" font-family="Times,serif" font-size="14.00">   </text>
<polygon fill="#445773" stroke="none" points="356.29,-756 356.29,-776 381.29,-776 381.29,-756 356.29,-756"/>
<text text-anchor="start" x="358.29" y="-761.4" font-family="Times,serif" font-size="14.00">   </text>
<polygon fill="none" stroke="#e8726d" points="358.29,-738 358.29,-754 379.29,-754 379.29,-738 358.29,-738"/>
</g>
<!-- key&#45;&gt;key2 -->
<g id="edge21" class="edge" data-name="key-&gt;key2">

<path fill="none" stroke="#1bc6a6" stroke-width="2" d="M192.84,-806C260.53,-806 280.62,-806 342.36,-806" style=""/>
<polygon fill="#1bc6a6" stroke="#1bc6a6" stroke-width="2" points="342.26,-809.5 352.26,-806 342.26,-802.5 342.26,-809.5" style=""/>
</g>
<!-- key&#45;&gt;key2 -->
<g id="edge22" class="edge" data-name="key-&gt;key2">

<path fill="none" stroke="white" stroke-width="2" d="M192.84,-786C260.53,-786 280.62,-786 342.36,-786" style=""/>
<polygon fill="white" stroke="white" stroke-width="2" points="342.26,-789.5 352.26,-786 342.26,-782.5 342.26,-789.5" style=""/>
</g>
</g>
</svg>